<?xml version="1.0" standalone="no"?>
<!DOCTYPE svg PUBLIC "-//W3C//DTD SVG 20010904//EN"
 "http://www.w3.org/TR/2001/REC-SVG-20010904/DTD/svg10.dtd">
<svg version="1.0" xmlns="http://www.w3.org/2000/svg"
 width="3500.000000pt" height="2826.000000pt" viewBox="0 0 3500.000000 2826.000000"
 preserveAspectRatio="xMidYMid meet">

<g transform="translate(0.000000,2826.000000) scale(0.100000,-0.100000)"
fill="#000000" stroke="none">
<path d="M31098 26731 c-985 -174 -1275 -228 -1265 -238 10 -10 642 -453 2652
-1860 214 -150 391 -270 393 -268 2 2 -99 587 -224 1299 l-229 1296 -25 -1
c-14 -1 -600 -103 -1302 -228z"/>
<path d="M20115 23873 c-27 -2 -120 -12 -206 -23 -440 -55 -808 -165 -1204
-360 -388 -190 -699 -413 -1000 -715 -966 -968 -1330 -2373 -956 -3692 407
-1436 1646 -2504 3130 -2698 652 -85 1338 7 1945 262 1214 510 2074 1621 2266
2927 116 788 -34 1638 -410 2327 -185 340 -381 600 -655 874 -643 644 -1452
1017 -2375 1095 -107 9 -420 11 -535 3z m619 -898 c517 -70 988 -267 1404
-587 133 -102 395 -362 492 -488 502 -652 712 -1465 579 -2250 -101 -602 -378
-1140 -808 -1570 -442 -441 -987 -716 -1621 -815 -142 -23 -554 -32 -703 -15
-756 81 -1440 446 -1928 1029 -236 280 -443 671 -545 1024 -89 309 -118 545
-111 887 7 336 41 534 142 836 330 986 1150 1712 2165 1914 126 25 193 35 385
54 80 8 443 -4 549 -19z"/>
<path d="M8415 22731 l-1280 -227 3 -30 c5 -49 442 -2527 450 -2552 7 -21 158
191 1079 1507 864 1234 1068 1531 1050 1530 -12 -1 -598 -103 -1302 -228z"/>
<path d="M1690 21107 c0 -7 -54 -352 -120 -767 -66 -415 -436 -2746 -821
-5179 -384 -2433 -710 -4489 -722 -4568 l-23 -143 35 -10 c683 -178 5410
-1111 10101 -1994 1686 -318 3819 -710 3825 -705 2 3 -1 36 -6 74 -17 126 -23
472 -10 611 54 571 270 1075 688 1599 109 138 358 388 483 488 370 294 797
480 1242 542 638 88 1339 -88 1937 -486 743 -494 1236 -1228 1371 -2039 27
-160 37 -460 21 -625 -33 -344 -150 -714 -321 -1019 -28 -49 -48 -92 -45 -94
12 -12 2406 -406 3423 -562 2033 -314 3489 -490 4060 -490 l142 0 11 28 c73
190 341 1681 733 4087 301 1845 912 5723 903 5732 -3 2 -333 -50 -734 -116
-4028 -667 -9459 -1486 -14858 -2241 -2856 -399 -4999 -679 -5022 -656 -2 2
-314 1762 -694 3912 -379 2149 -690 3909 -692 3910 -3 2 -4880 724 -4894 724
-7 0 -13 -6 -13 -13z m2499 -1642 c712 -113 1296 -207 1299 -209 2 -2 -565
-417 -1260 -922 -695 -505 -1377 -1001 -1516 -1102 -139 -102 -254 -183 -256
-181 -2 2 9 85 25 184 39 244 190 1199 295 1865 47 300 87 551 90 558 2 6 9
12 16 12 7 0 596 -92 1307 -205z m-1250 -6995 c605 -833 1099 -1515 1098
-1516 -3 -3 -2617 412 -2621 417 -2 2 9 83 24 179 16 96 108 679 205 1295 97
616 178 1126 181 1134 2 8 6 12 9 10 2 -3 499 -686 1104 -1519z m23345 -2707
c-18 -115 -105 -662 -193 -1218 -201 -1267 -187 -1185 -193 -1191 -3 -3 -589
88 -1302 201 -712 113 -1301 205 -1308 205 -7 0 -4 8 7 19 11 10 682 499 1490
1086 809 587 1481 1076 1495 1086 14 10 28 19 31 19 3 0 -9 -93 -27 -207z"/>
<path d="M32503 18883 c-588 -841 -1068 -1530 -1067 -1532 4 -5 2588 451 2596
458 6 6 -446 2588 -455 2597 -2 2 -485 -683 -1074 -1523z"/>
<path d="M8293 15914 c22 -138 451 -2560 453 -2563 2 -2 589 99 1304 225 1204
212 1298 230 1282 245 -15 14 -2996 2103 -3031 2124 -12 7 -13 1 -8 -31z"/>
</g>
</svg>
